<?xml version="1.0" encoding="UTF-8" ?>
<!DOCTYPE svg PUBLIC "-//W3C//DTD SVG 1.1//EN" "http://www.w3.org/Graphics/SVG/1.1/DTD/svg11.dtd">
<svg width="800pt" height="477pt" viewBox="0 0 800 477" version="1.1" xmlns="http://www.w3.org/2000/svg">
<g id="#000000ff">
</g>
<g id="#0e5634ff">
<path fill="#0e5634" opacity="1.00" d=" M 3.21 3.23 C 81.03 3.21 158.85 3.16 236.67 3.18 C 236.66 81.02 236.72 158.86 236.68 236.69 C 158.66 236.70 80.63 236.75 2.61 236.62 C 2.68 201.07 2.63 165.53 2.63 129.98 C 2.66 124.99 3.20 120.02 3.22 115.02 C 3.16 77.76 3.26 40.49 3.21 3.23 M 179.64 31.03 C 181.33 31.40 183.02 31.78 184.71 32.15 C 185.31 30.93 185.82 29.66 186.58 28.52 C 188.51 26.40 192.77 28.02 192.46 31.04 C 192.90 34.16 189.09 34.08 186.99 34.48 C 187.01 35.70 187.03 36.93 187.05 38.15 C 188.61 38.47 190.31 38.46 191.73 39.28 C 194.24 41.57 192.72 46.79 189.01 46.57 C 185.98 46.90 184.76 44.03 184.09 41.65 C 182.44 41.67 180.80 41.70 179.16 41.73 C 179.75 44.69 180.32 48.24 183.34 49.73 C 188.57 52.52 197.44 50.75 198.35 43.98 C 199.13 40.54 196.98 37.49 194.00 36.01 C 196.14 34.74 198.23 32.79 197.76 30.03 C 197.75 24.65 191.45 22.20 186.88 23.40 C 182.92 23.86 180.69 27.55 179.64 31.03 M 204.05 23.61 C 203.42 28.55 202.79 33.49 202.16 38.44 C 203.52 38.53 204.88 38.63 206.24 38.74 C 207.61 37.60 208.95 35.88 210.96 36.17 C 217.01 36.30 216.24 47.58 210.19 46.75 C 207.95 46.67 207.28 44.18 206.30 42.63 C 204.50 42.84 202.71 43.05 200.93 43.28 C 201.79 45.47 202.40 48.09 204.61 49.36 C 207.88 51.37 212.27 51.50 215.70 49.78 C 222.24 46.73 222.35 35.40 215.54 32.63 C 212.82 31.41 209.84 32.29 207.28 33.47 C 207.61 31.73 207.91 29.99 208.21 28.25 C 211.66 28.26 215.11 28.26 218.55 28.25 C 218.72 26.71 218.89 25.16 219.06 23.61 C 214.06 23.60 209.06 23.60 204.05 23.61 M 37.80 55.67 C 37.81 99.49 37.81 143.31 37.81 187.12 C 57.22 187.13 76.63 187.12 96.03 187.13 C 108.42 186.91 121.76 185.53 132.01 177.90 C 140.42 171.73 144.14 161.08 144.39 150.96 C 145.21 140.99 141.88 130.53 134.56 123.55 C 129.59 118.57 122.74 116.16 115.91 115.14 C 122.48 113.69 129.14 110.87 133.33 105.37 C 138.83 98.31 139.53 88.62 137.66 80.13 C 135.94 72.26 130.64 65.37 123.62 61.47 C 115.90 56.94 106.78 55.59 97.96 55.68 C 77.91 55.66 57.86 55.67 37.80 55.67 M 197.06 93.94 C 190.67 96.10 185.74 101.14 182.54 106.95 C 182.54 102.53 182.54 98.10 182.54 93.68 C 175.03 93.67 167.52 93.67 160.02 93.67 C 160.02 124.82 160.02 155.97 160.01 187.12 C 167.52 187.12 175.03 187.11 182.53 187.12 C 182.54 173.76 182.55 160.40 182.53 147.03 C 182.34 139.32 182.67 130.90 187.57 124.51 C 193.08 117.00 202.82 114.40 211.73 114.35 C 211.68 106.72 211.75 99.09 211.69 91.45 C 206.74 91.64 201.73 92.17 197.06 93.94 Z" />
<path fill="#0e5634" opacity="1.00" d=" M 466.43 54.38 C 468.99 53.86 471.01 55.79 473.06 56.98 C 472.69 66.36 473.63 75.80 472.34 85.13 C 471.58 92.40 472.15 99.71 471.99 106.99 C 472.16 114.47 471.42 122.01 472.65 129.43 C 478.68 126.05 483.41 120.96 488.61 116.49 C 491.22 114.24 493.32 111.48 495.43 108.77 C 492.86 106.62 489.74 104.90 487.97 101.97 C 487.39 96.92 492.69 94.31 496.96 93.97 C 507.31 92.67 518.42 91.54 528.15 96.16 C 528.55 98.79 528.95 101.41 529.37 104.04 C 523.79 107.49 516.83 107.65 511.44 111.45 C 505.40 115.74 499.96 120.91 495.67 126.98 C 505.55 141.30 516.36 155.09 528.77 167.32 C 533.07 172.11 539.93 172.46 545.08 175.93 C 545.04 178.30 545.01 180.67 545.01 183.04 C 538.19 188.42 529.10 186.89 521.04 187.00 C 515.71 187.29 511.50 183.51 508.26 179.74 C 496.26 165.43 485.94 149.68 472.79 136.36 C 471.19 146.48 471.84 156.85 473.12 166.97 C 473.52 168.70 473.50 170.83 474.82 172.14 C 477.86 173.98 481.23 175.21 484.31 177.00 C 483.86 179.62 484.59 183.26 481.67 184.66 C 475.27 187.76 467.90 186.88 461.01 187.03 C 453.55 186.96 445.25 187.79 438.91 183.02 C 438.94 181.01 438.95 179.01 438.97 177.00 C 441.85 175.20 445.04 173.84 447.64 171.62 C 449.91 167.88 449.98 163.29 450.06 159.05 C 449.96 136.38 450.00 113.71 450.03 91.05 C 450.07 85.65 449.04 80.34 448.08 75.05 C 443.48 73.60 438.83 72.26 434.55 70.01 C 435.02 67.77 435.10 65.36 436.27 63.34 C 437.69 61.85 439.72 61.22 441.58 60.45 C 449.59 57.47 457.93 55.30 466.43 54.38 Z" />
<path fill="#0e5634" opacity="1.00" d=" M 568.34 57.32 C 573.39 57.04 579.15 58.57 582.29 62.83 C 584.61 65.90 584.45 70.13 583.64 73.70 C 581.96 77.70 578.11 80.69 573.94 81.73 C 568.85 82.47 562.99 82.67 558.77 79.22 C 552.31 74.49 553.84 63.21 560.75 59.68 C 563.06 58.35 565.70 57.68 568.34 57.32 Z" />
<path fill="#0e5634" opacity="1.00" d=" M 62.55 75.19 C 73.02 75.26 83.50 75.07 93.98 75.29 C 100.23 75.58 107.40 77.44 110.72 83.26 C 114.31 89.90 113.38 99.44 107.18 104.25 C 102.87 107.53 97.26 108.41 91.97 108.47 C 82.16 108.48 72.35 108.47 62.55 108.47 C 62.54 97.38 62.55 86.29 62.55 75.19 Z" />
<path fill="#0e5634" opacity="1.00" d=" M 772.75 94.29 C 780.22 95.97 786.78 90.86 792.63 86.99 C 794.18 88.53 795.74 90.07 797.33 91.59 C 796.75 94.97 796.55 98.63 794.51 101.52 C 792.45 104.46 789.22 106.22 786.31 108.18 C 788.75 115.13 790.56 122.62 788.89 129.97 C 787.30 141.17 778.51 150.20 768.32 154.38 C 756.01 159.93 742.02 158.44 729.18 155.83 C 727.99 157.99 726.81 160.15 725.61 162.31 C 727.18 165.02 729.04 167.93 732.31 168.73 C 740.61 171.28 749.46 169.82 757.96 169.16 C 769.32 167.72 781.86 166.56 792.05 172.91 C 797.38 176.03 798.94 182.39 800.00 188.02 L 800.00 188.89 C 799.19 196.05 796.64 203.23 791.34 208.31 C 781.03 219.87 764.78 222.90 750.05 223.91 C 738.47 224.08 726.32 222.05 716.52 215.54 C 710.29 211.29 705.04 204.04 706.14 196.16 C 707.19 189.69 712.98 185.76 718.00 182.33 C 715.11 180.57 711.86 179.02 709.99 176.08 C 707.00 171.61 707.26 165.50 709.96 160.96 C 712.37 156.38 716.64 153.29 720.80 150.43 C 717.27 146.75 713.71 142.83 712.13 137.87 C 708.51 126.26 710.72 112.40 719.63 103.70 C 726.51 95.76 737.04 92.36 747.19 91.29 C 755.81 90.72 764.34 92.63 772.75 94.29 M 746.36 104.32 C 742.10 105.43 738.25 108.29 736.27 112.27 C 732.98 118.20 731.95 125.40 734.10 131.91 C 735.40 137.93 740.09 143.14 746.05 144.80 C 750.96 145.70 756.49 144.76 760.28 141.33 C 767.95 134.72 768.86 122.83 765.08 113.95 C 761.89 107.15 753.90 102.34 746.36 104.32 M 745.96 187.94 C 741.02 188.34 736.13 187.37 731.25 186.76 C 729.44 189.93 726.86 193.09 727.01 196.93 C 727.33 202.09 731.58 205.96 735.98 208.06 C 745.83 212.14 757.13 211.63 767.03 207.98 C 771.73 205.83 776.98 203.06 778.82 197.89 C 779.33 195.04 779.39 191.77 777.65 189.31 C 774.99 186.40 770.78 185.72 767.02 185.89 C 759.97 186.22 752.99 187.35 745.96 187.94 Z" />
<path fill="#0e5634" opacity="1.00" d=" M 264.62 102.58 C 273.05 94.73 284.77 91.64 296.01 90.99 C 302.83 91.12 309.71 92.45 316.04 95.01 C 323.54 98.75 329.90 105.14 333.02 112.98 C 335.62 118.97 336.40 125.61 336.04 132.08 C 336.06 134.76 334.35 136.93 333.01 139.08 C 320.00 138.89 306.98 139.03 293.97 139.00 C 286.94 139.14 279.82 138.34 272.89 139.91 C 272.85 144.92 272.74 150.18 275.28 154.70 C 278.69 162.94 286.30 169.18 295.00 171.04 C 301.26 172.64 307.92 171.24 313.73 168.73 C 319.32 166.31 323.21 161.01 329.06 159.13 C 331.36 158.32 333.36 160.00 335.29 160.98 C 334.94 163.83 335.32 167.03 333.48 169.46 C 322.26 183.53 302.97 192.05 285.03 187.91 C 274.93 186.25 265.78 180.58 259.10 172.93 C 242.10 153.03 244.74 119.60 264.62 102.58 M 277.95 111.96 C 274.43 116.19 273.70 121.78 273.81 127.10 C 279.76 128.44 285.88 128.04 291.93 128.01 C 299.35 127.83 306.87 128.72 314.20 127.09 C 314.00 123.74 314.19 120.26 312.93 117.08 C 310.80 111.93 306.57 107.70 301.38 105.65 C 293.39 101.78 283.06 104.85 277.95 111.96 Z" />
<path fill="#0e5634" opacity="1.00" d=" M 365.77 94.69 C 372.92 92.33 380.49 91.33 387.99 90.98 C 396.69 91.40 405.89 92.53 413.21 97.68 C 418.42 100.93 421.10 107.00 422.01 112.88 C 423.51 121.18 422.90 129.63 422.99 138.01 C 423.03 146.02 422.99 154.02 422.93 162.03 C 422.99 164.69 422.99 167.87 425.22 169.74 C 428.33 171.67 431.93 172.58 435.30 173.96 C 434.91 176.94 435.25 180.53 432.69 182.67 C 427.65 187.14 420.67 189.18 414.01 189.07 C 408.02 188.61 403.86 183.57 400.70 178.96 C 394.87 182.72 388.95 186.67 382.04 188.07 C 371.70 190.52 359.74 188.60 351.61 181.45 C 345.69 176.08 342.31 168.03 342.87 160.02 C 342.26 150.33 346.82 140.33 355.17 135.16 C 362.71 129.90 372.05 128.61 380.99 127.99 C 387.73 127.58 394.40 128.76 401.05 129.67 C 400.92 122.57 401.73 114.64 397.48 108.48 C 394.27 103.69 387.67 103.09 382.54 104.55 C 372.40 107.44 369.10 120.70 358.05 121.84 C 356.38 121.47 354.70 121.14 353.03 120.83 C 350.20 117.88 347.92 113.72 349.54 109.57 C 351.29 101.73 358.76 97.26 365.77 94.69 M 372.32 145.38 C 366.88 150.33 365.13 159.41 369.40 165.67 C 373.93 172.05 382.76 174.41 390.14 172.38 C 394.55 171.49 398.65 168.29 399.81 163.84 C 401.71 156.79 400.87 149.42 400.99 142.23 C 391.47 140.86 380.57 139.09 372.32 145.38 Z" />
<path fill="#0e5634" opacity="1.00" d=" M 568.88 92.89 C 573.46 91.78 578.56 90.03 582.90 92.83 C 583.66 97.51 584.49 102.27 583.78 107.01 C 582.02 118.61 583.65 130.38 582.79 142.05 C 581.50 152.21 581.31 163.03 585.11 172.70 C 588.26 173.75 591.26 175.17 594.05 176.97 C 594.04 178.98 594.05 181.00 594.07 183.02 C 587.74 187.80 579.44 186.96 571.98 187.03 C 564.21 186.91 555.56 187.96 548.93 183.02 C 548.94 181.01 548.95 179.00 548.97 177.00 C 551.83 175.20 555.02 173.86 557.60 171.64 C 560.78 167.10 559.92 161.22 560.03 155.99 C 559.64 142.00 560.92 127.93 558.89 114.02 C 555.45 111.05 551.08 109.68 546.93 108.05 C 546.95 106.06 546.97 104.08 546.99 102.09 C 553.05 96.61 561.25 94.98 568.88 92.89 Z" />
<path fill="#0e5634" opacity="1.00" d=" M 648.71 93.64 C 656.33 90.66 665.00 90.14 672.66 93.29 C 685.35 97.02 692.57 110.41 692.94 123.00 C 693.13 135.67 692.90 148.34 692.98 161.01 C 693.15 164.62 693.40 168.51 695.39 171.64 C 697.99 173.84 701.17 175.21 704.05 177.02 C 704.03 179.02 704.03 181.03 704.04 183.04 C 697.72 187.70 689.42 186.83 682.01 187.04 C 674.27 186.82 665.59 187.85 658.94 183.03 C 658.94 181.00 658.95 178.97 658.96 176.94 C 661.74 175.37 664.71 174.12 667.30 172.21 C 669.31 170.82 669.66 168.21 670.06 165.99 C 671.69 155.06 671.21 143.94 670.09 133.00 C 669.97 126.26 668.96 118.98 664.30 113.76 C 659.37 108.94 651.29 109.00 645.68 112.61 C 638.96 116.21 635.98 123.91 635.30 131.13 C 634.69 143.71 632.48 156.50 635.25 168.99 C 636.25 174.00 642.40 174.52 646.08 176.94 C 646.06 178.98 646.05 181.02 646.05 183.06 C 640.00 187.59 632.10 187.03 624.96 187.02 C 616.87 186.80 607.82 188.41 600.94 183.05 C 600.97 180.82 600.99 178.59 601.01 176.37 C 603.93 174.95 607.23 173.97 609.61 171.67 C 612.72 166.35 611.94 159.89 612.03 153.99 C 611.68 141.13 612.98 128.12 610.55 115.39 C 609.96 111.37 605.43 110.84 602.38 109.54 C 600.15 108.94 598.94 106.89 597.57 105.23 C 598.74 102.97 599.61 100.19 602.27 99.26 C 611.87 94.69 622.39 91.51 633.12 91.85 C 635.18 95.71 635.21 100.11 635.11 104.37 C 639.94 101.17 643.43 96.19 648.71 93.64 Z" />
<path fill="#0e5634" opacity="1.00" d=" M 62.55 126.93 C 73.35 126.97 84.16 126.86 94.97 126.98 C 101.42 127.12 108.53 127.94 113.45 132.58 C 117.91 136.75 119.00 143.28 118.59 149.13 C 118.34 153.83 116.30 158.62 112.30 161.32 C 107.27 164.74 100.96 165.27 95.05 165.34 C 84.22 165.34 73.38 165.33 62.55 165.33 C 62.55 152.53 62.54 139.73 62.55 126.93 Z" />
<path fill="#0e5634" opacity="1.00" d=" M 239.44 239.37 C 317.42 239.35 395.40 239.38 473.39 239.39 C 473.33 317.39 473.35 395.38 473.38 473.38 C 395.42 473.35 317.45 473.33 239.49 473.39 C 239.45 395.38 239.50 317.37 239.44 239.37 M 417.79 258.41 C 417.15 263.35 416.52 268.29 415.89 273.24 C 417.24 273.32 418.60 273.41 419.96 273.50 C 421.42 272.34 422.85 270.54 424.97 271.06 C 430.66 271.44 429.90 282.00 424.19 281.61 C 421.78 281.69 421.06 279.14 420.07 277.46 C 418.26 277.62 416.46 277.78 414.66 277.95 C 415.47 280.07 415.98 282.60 418.00 283.95 C 421.37 286.25 426.04 286.35 429.63 284.48 C 435.94 281.32 436.01 270.35 429.40 267.51 C 426.64 266.24 423.61 267.09 421.03 268.35 C 421.34 266.58 421.63 264.82 421.93 263.05 C 425.38 263.05 428.83 263.06 432.28 263.06 C 432.45 261.50 432.63 259.95 432.81 258.40 C 427.80 258.40 422.79 258.40 417.79 258.41 M 440.35 261.40 C 437.72 264.98 437.28 269.65 437.40 273.95 C 437.57 277.71 438.51 281.91 441.70 284.29 C 445.55 286.87 451.54 286.11 454.26 282.20 C 457.60 277.72 455.89 269.52 449.95 268.30 C 447.19 267.50 444.62 268.85 442.40 270.31 C 443.07 267.34 443.27 262.97 447.05 262.37 C 449.11 262.15 450.03 264.14 451.18 265.44 C 452.76 265.19 454.35 264.93 455.95 264.66 C 454.91 262.65 454.16 260.22 452.04 259.07 C 448.29 256.99 442.92 257.85 440.35 261.40 M 255.84 292.00 C 255.84 335.82 255.83 379.64 255.84 423.46 C 275.91 423.44 295.98 423.50 316.04 423.44 C 328.08 423.07 341.01 421.45 350.75 413.71 C 358.79 407.42 362.17 396.95 362.42 387.05 C 363.11 377.75 360.24 368.04 353.79 361.18 C 348.66 355.49 341.23 352.36 333.71 351.55 C 340.64 350.02 347.76 347.03 351.91 340.97 C 360.46 328.15 357.22 308.54 344.44 299.63 C 336.55 293.94 326.56 292.10 317.01 292.02 C 296.62 291.97 276.23 292.01 255.84 292.00 M 385.18 337.22 C 378.91 342.32 376.06 350.46 375.90 358.36 C 383.40 358.67 390.90 358.98 398.40 359.30 C 398.51 354.30 399.99 348.25 405.44 346.65 C 413.02 344.68 421.71 344.29 428.84 347.98 C 433.13 350.20 433.80 355.38 433.75 359.71 C 427.26 361.87 420.52 363.03 413.83 364.38 C 404.95 366.39 395.62 367.19 387.38 371.37 C 380.59 374.68 374.75 380.49 372.60 387.86 C 370.09 396.61 371.48 406.62 377.03 413.95 C 382.19 420.75 390.48 424.69 398.88 425.48 C 411.18 426.75 423.83 422.91 433.44 415.15 C 433.86 417.97 434.53 420.76 435.56 423.44 C 443.50 423.51 451.45 423.42 459.39 423.50 C 457.20 419.00 456.13 414.05 456.16 409.06 C 456.10 393.71 456.14 378.36 456.14 363.01 C 456.35 354.46 455.67 344.98 449.71 338.28 C 442.85 330.49 431.92 328.59 422.07 328.06 C 409.34 327.37 395.33 328.73 385.18 337.22 Z" />
<path fill="#0e5634" opacity="1.00" d=" M 444.35 273.37 C 446.31 271.70 450.03 272.43 450.61 275.12 C 451.51 277.74 450.27 281.60 446.97 281.39 C 442.86 281.60 441.91 275.79 444.35 273.37 Z" />
<path fill="#0e5634" opacity="1.00" d=" M 544.00 298.11 C 552.01 294.69 560.49 292.13 569.19 291.27 C 571.86 290.71 573.95 292.74 576.05 294.02 C 575.77 305.65 576.30 317.30 575.83 328.92 C 574.38 338.88 575.18 348.95 574.99 358.97 C 575.18 366.24 574.54 373.55 575.37 380.80 C 576.60 388.89 575.30 397.16 577.10 405.20 C 581.15 406.57 585.23 407.92 589.07 409.84 C 589.04 411.87 589.03 413.90 589.03 415.94 C 580.68 420.64 571.35 423.41 561.90 424.78 C 559.24 425.22 556.02 425.05 554.31 422.66 C 553.68 419.02 554.00 415.30 553.96 411.64 C 548.71 415.61 543.57 419.90 537.43 422.46 C 528.24 426.70 517.46 425.39 508.32 421.70 C 497.35 416.92 489.91 406.31 486.95 394.97 C 483.30 380.76 484.67 365.19 491.07 351.97 C 496.17 341.47 505.63 332.93 517.04 329.99 C 524.98 327.66 533.59 327.06 541.60 329.45 C 545.45 330.54 549.17 332.04 552.94 333.40 C 552.94 328.00 553.35 322.58 552.79 317.21 C 552.43 315.27 552.04 312.86 550.00 311.99 C 546.27 310.10 542.24 308.90 538.51 307.01 C 538.73 303.30 540.40 299.63 544.00 298.11 M 524.11 343.12 C 515.55 346.90 511.25 356.27 510.26 365.13 C 509.42 374.75 509.55 384.99 514.23 393.71 C 517.73 401.25 525.35 407.61 534.02 407.16 C 539.79 407.40 545.63 404.71 549.22 400.19 C 553.22 393.91 553.21 386.14 553.04 378.96 C 552.72 369.72 553.84 360.36 551.92 351.24 C 545.24 343.45 533.95 339.52 524.11 343.12 Z" />
<path fill="#0e5634" opacity="1.00" d=" M 280.56 311.60 C 291.03 311.65 301.51 311.47 311.99 311.68 C 318.41 311.87 325.77 313.98 328.96 320.08 C 332.19 326.58 331.31 335.63 325.45 340.38 C 320.88 344.12 314.72 344.82 309.02 344.88 C 299.53 344.88 290.05 344.88 280.56 344.88 C 280.55 333.78 280.56 322.69 280.56 311.60 Z" />
<path fill="#0e5634" opacity="1.00" d=" M 280.56 363.25 C 291.36 363.30 302.15 363.18 312.95 363.31 C 319.33 363.43 326.25 364.30 331.23 368.69 C 335.99 372.99 337.09 379.89 336.56 385.99 C 336.24 390.67 334.03 395.38 329.96 397.92 C 324.94 401.14 318.78 401.61 312.97 401.73 C 302.16 401.76 291.36 401.73 280.56 401.74 C 280.56 388.91 280.55 376.08 280.56 363.25 Z" />
<path fill="#0e5634" opacity="1.00" d=" M 403.59 384.51 C 413.41 381.26 424.02 380.92 433.63 376.93 C 433.48 382.11 433.89 387.31 433.39 392.48 C 432.33 399.61 425.56 404.15 419.07 405.92 C 412.56 407.68 404.76 408.29 399.11 403.93 C 394.55 400.54 393.73 393.47 396.99 388.94 C 398.66 386.82 401.07 385.41 403.59 384.51 Z" />
</g>
<g id="#ffffffff">
<path fill="#ffffff" opacity="1.00" d=" M 179.64 31.03 C 180.69 27.55 182.92 23.86 186.88 23.40 C 191.45 22.20 197.75 24.65 197.76 30.03 C 198.23 32.79 196.14 34.74 194.00 36.01 C 196.98 37.49 199.13 40.54 198.35 43.98 C 197.44 50.75 188.57 52.52 183.34 49.73 C 180.32 48.24 179.75 44.69 179.16 41.73 C 180.80 41.70 182.44 41.67 184.09 41.65 C 184.76 44.03 185.98 46.90 189.01 46.57 C 192.72 46.79 194.24 41.57 191.73 39.28 C 190.31 38.46 188.61 38.47 187.05 38.15 C 187.03 36.93 187.01 35.70 186.99 34.48 C 189.09 34.08 192.90 34.16 192.46 31.04 C 192.77 28.02 188.51 26.40 186.58 28.52 C 185.82 29.66 185.31 30.93 184.71 32.15 C 183.02 31.78 181.33 31.40 179.64 31.03 Z" />
<path fill="#ffffff" opacity="1.00" d=" M 204.05 23.61 C 209.06 23.60 214.06 23.60 219.06 23.61 C 218.89 25.16 218.72 26.71 218.55 28.25 C 215.11 28.26 211.66 28.26 208.21 28.25 C 207.91 29.99 207.61 31.73 207.28 33.47 C 209.84 32.29 212.82 31.41 215.54 32.63 C 222.35 35.40 222.24 46.73 215.70 49.78 C 212.27 51.50 207.88 51.37 204.61 49.36 C 202.40 48.09 201.79 45.47 200.93 43.28 C 202.71 43.05 204.50 42.84 206.30 42.63 C 207.28 44.18 207.95 46.67 210.19 46.75 C 216.24 47.58 217.01 36.30 210.96 36.17 C 208.95 35.88 207.61 37.60 206.24 38.74 C 204.88 38.63 203.52 38.53 202.16 38.44 C 202.79 33.49 203.42 28.55 204.05 23.61 Z" />
<path fill="#ffffff" opacity="1.00" d=" M 37.80 55.67 C 57.86 55.67 77.91 55.66 97.96 55.68 C 106.78 55.59 115.90 56.94 123.62 61.47 C 130.64 65.37 135.94 72.26 137.66 80.13 C 139.53 88.62 138.83 98.31 133.33 105.37 C 129.14 110.87 122.48 113.69 115.91 115.14 C 122.74 116.16 129.59 118.57 134.56 123.55 C 141.88 130.53 145.21 140.99 144.39 150.96 C 144.14 161.08 140.42 171.73 132.01 177.90 C 121.76 185.53 108.42 186.91 96.03 187.13 C 76.63 187.12 57.22 187.13 37.81 187.12 C 37.81 143.31 37.81 99.49 37.80 55.67 M 62.55 75.19 C 62.55 86.29 62.54 97.38 62.55 108.47 C 72.35 108.47 82.16 108.48 91.97 108.47 C 97.26 108.41 102.87 107.53 107.18 104.25 C 113.38 99.44 114.31 89.90 110.72 83.26 C 107.40 77.44 100.23 75.58 93.98 75.29 C 83.50 75.07 73.02 75.26 62.55 75.19 M 62.55 126.93 C 62.54 139.73 62.55 152.53 62.55 165.33 C 73.38 165.33 84.22 165.34 95.05 165.34 C 100.96 165.27 107.27 164.74 112.30 161.32 C 116.30 158.62 118.34 153.83 118.59 149.13 C 119.00 143.28 117.91 136.75 113.45 132.58 C 108.53 127.94 101.42 127.12 94.97 126.98 C 84.16 126.86 73.35 126.97 62.55 126.93 Z" />
<path fill="#ffffff" opacity="1.00" d=" M 197.06 93.94 C 201.73 92.17 206.74 91.64 211.69 91.45 C 211.75 99.09 211.68 106.72 211.73 114.35 C 202.82 114.40 193.08 117.00 187.57 124.51 C 182.67 130.90 182.34 139.32 182.53 147.03 C 182.55 160.40 182.54 173.76 182.53 187.12 C 175.03 187.11 167.52 187.12 160.01 187.12 C 160.02 155.97 160.02 124.82 160.02 93.67 C 167.52 93.67 175.03 93.67 182.54 93.68 C 182.54 98.10 182.54 102.53 182.54 106.95 C 185.74 101.14 190.67 96.10 197.06 93.94 Z" />
<path fill="#ffffff" opacity="1.00" d=" M 417.79 258.41 C 422.79 258.40 427.80 258.40 432.81 258.40 C 432.63 259.95 432.45 261.50 432.28 263.06 C 428.83 263.06 425.38 263.05 421.93 263.05 C 421.63 264.82 421.34 266.58 421.03 268.35 C 423.61 267.09 426.64 266.24 429.40 267.51 C 436.01 270.35 435.94 281.32 429.63 284.48 C 426.04 286.35 421.37 286.25 418.00 283.95 C 415.98 282.60 415.47 280.07 414.66 277.95 C 416.46 277.78 418.26 277.62 420.07 277.46 C 421.06 279.14 421.78 281.69 424.19 281.61 C 429.90 282.00 430.66 271.44 424.97 271.06 C 422.85 270.54 421.42 272.34 419.96 273.50 C 418.60 273.41 417.24 273.32 415.89 273.24 C 416.52 268.29 417.15 263.35 417.79 258.41 Z" />
<path fill="#ffffff" opacity="1.00" d=" M 440.35 261.40 C 442.92 257.85 448.29 256.99 452.04 259.07 C 454.16 260.22 454.91 262.65 455.95 264.66 C 454.35 264.93 452.76 265.19 451.18 265.44 C 450.03 264.14 449.11 262.15 447.05 262.37 C 443.27 262.97 443.07 267.34 442.40 270.31 C 444.62 268.85 447.19 267.50 449.95 268.30 C 455.89 269.52 457.60 277.72 454.26 282.20 C 451.54 286.11 445.55 286.87 441.70 284.29 C 438.51 281.91 437.57 277.71 437.40 273.95 C 437.28 269.65 437.72 264.98 440.35 261.40 M 444.35 273.37 C 441.91 275.79 442.86 281.60 446.97 281.39 C 450.27 281.60 451.51 277.74 450.61 275.12 C 450.03 272.43 446.31 271.70 444.35 273.37 Z" />
<path fill="#ffffff" opacity="1.00" d=" M 255.84 292.00 C 276.23 292.01 296.62 291.97 317.01 292.02 C 326.56 292.10 336.55 293.94 344.44 299.63 C 357.22 308.54 360.46 328.15 351.91 340.97 C 347.76 347.03 340.64 350.02 333.71 351.55 C 341.23 352.36 348.66 355.49 353.79 361.18 C 360.24 368.04 363.11 377.75 362.42 387.05 C 362.17 396.95 358.79 407.42 350.75 413.71 C 341.01 421.45 328.08 423.07 316.04 423.44 C 295.98 423.50 275.91 423.44 255.84 423.46 C 255.83 379.64 255.84 335.82 255.84 292.00 M 280.56 311.60 C 280.56 322.69 280.55 333.78 280.56 344.88 C 290.05 344.88 299.53 344.88 309.02 344.88 C 314.72 344.82 320.88 344.12 325.45 340.38 C 331.31 335.63 332.19 326.58 328.96 320.08 C 325.77 313.98 318.41 311.87 311.99 311.68 C 301.51 311.47 291.03 311.65 280.56 311.60 M 280.56 363.25 C 280.55 376.08 280.56 388.91 280.56 401.74 C 291.36 401.73 302.16 401.76 312.97 401.73 C 318.78 401.61 324.94 401.14 329.96 397.92 C 334.03 395.38 336.24 390.67 336.56 385.99 C 337.09 379.89 335.99 372.99 331.23 368.69 C 326.25 364.30 319.33 363.43 312.95 363.31 C 302.15 363.18 291.36 363.30 280.56 363.25 Z" />
<path fill="#ffffff" opacity="1.00" d=" M 385.18 337.22 C 395.33 328.73 409.34 327.37 422.07 328.06 C 431.92 328.59 442.85 330.49 449.71 338.28 C 455.67 344.98 456.35 354.46 456.14 363.01 C 456.14 378.36 456.10 393.71 456.16 409.06 C 456.13 414.05 457.20 419.00 459.39 423.50 C 451.45 423.42 443.50 423.51 435.56 423.44 C 434.53 420.76 433.86 417.97 433.44 415.15 C 423.83 422.91 411.18 426.75 398.88 425.48 C 390.48 424.69 382.19 420.75 377.03 413.95 C 371.48 406.62 370.09 396.61 372.60 387.86 C 374.75 380.49 380.59 374.68 387.38 371.37 C 395.62 367.19 404.95 366.39 413.83 364.38 C 420.52 363.03 427.26 361.87 433.75 359.71 C 433.80 355.38 433.13 350.20 428.84 347.98 C 421.71 344.29 413.02 344.68 405.44 346.65 C 399.99 348.25 398.51 354.30 398.40 359.30 C 390.90 358.98 383.40 358.67 375.90 358.36 C 376.06 350.46 378.91 342.32 385.18 337.22 M 403.59 384.51 C 401.07 385.41 398.66 386.82 396.99 388.94 C 393.73 393.47 394.55 400.54 399.11 403.93 C 404.76 408.29 412.56 407.68 419.07 405.92 C 425.56 404.15 432.33 399.61 433.39 392.48 C 433.89 387.31 433.48 382.11 433.63 376.93 C 424.02 380.92 413.41 381.26 403.59 384.51 Z" />
</g>
</svg>
